<?xml version="1.0" encoding="utf-8" standalone="no"?>
<!DOCTYPE svg PUBLIC "-//W3C//DTD SVG 1.1//EN"
  "http://www.w3.org/Graphics/SVG/1.1/DTD/svg11.dtd">
<!-- Created with matplotlib (https://matplotlib.org/) -->
<svg height="345.6pt" version="1.1" viewBox="0 0 460.8 345.6" width="460.8pt" xmlns="http://www.w3.org/2000/svg" xmlns:xlink="http://www.w3.org/1999/xlink">
 <defs>
  <style type="text/css">
*{stroke-linecap:butt;stroke-linejoin:round;}
  </style>
 </defs>
 <g id="figure_1">
  <g id="patch_1">
   <path d="M 0 345.6 
L 460.8 345.6 
L 460.8 0 
L 0 0 
z
" style="fill:#ffffff;"/>
  </g>
  <g id="axes_1">
   <g id="patch_2">
    <path d="M 93.977497 282.76 
L 447.48 282.76 
L 447.48 16.380967 
L 93.977497 16.380967 
z
" style="fill:#ffffff;"/>
   </g>
   <g id="patch_3">
    <path clip-path="url(#pc2429b5a2f)" d="M 110.045792 282.76 
L 110.045792 16.380967 
L 302.533216 16.380967 
L 302.533216 282.76 
z
" style="fill:#ff8c00;opacity:0.5;stroke:#ff8c00;stroke-linejoin:miter;"/>
   </g>
   <g id="matplotlib.axis_1">
    <g id="xtick_1">
     <g id="line2d_1">
      <path clip-path="url(#pc2429b5a2f)" d="M 114.522244 282.76 
L 114.522244 16.380967 
" style="fill:none;stroke:#b0b0b0;stroke-linecap:square;stroke-width:0.8;"/>
     </g>
     <g id="line2d_2">
      <defs>
       <path d="M 0 0 
L 0 3.5 
" id="m74429acc54" style="stroke:#000000;stroke-width:0.8;"/>
      </defs>
      <g>
       <use style="stroke:#000000;stroke-width:0.8;" x="114.522244" xlink:href="#m74429acc54" y="282.76"/>
      </g>
     </g>
     <g id="text_1">
      <!-- −35 -->
      <defs>
       <path d="M 10.59375 35.5 
L 73.1875 35.5 
L 73.1875 27.203125 
L 10.59375 27.203125 
z
" id="DejaVuSans-8722"/>
       <path d="M 40.578125 39.3125 
Q 47.65625 37.796875 51.625 33 
Q 55.609375 28.21875 55.609375 21.1875 
Q 55.609375 10.40625 48.1875 4.484375 
Q 40.765625 -1.421875 27.09375 -1.421875 
Q 22.515625 -1.421875 17.65625 -0.515625 
Q 12.796875 0.390625 7.625 2.203125 
L 7.625 11.71875 
Q 11.71875 9.328125 16.59375 8.109375 
Q 21.484375 6.890625 26.8125 6.890625 
Q 36.078125 6.890625 40.9375 10.546875 
Q 45.796875 14.203125 45.796875 21.1875 
Q 45.796875 27.640625 41.28125 31.265625 
Q 36.765625 34.90625 28.71875 34.90625 
L 20.21875 34.90625 
L 20.21875 43.015625 
L 29.109375 43.015625 
Q 36.375 43.015625 40.234375 45.921875 
Q 44.09375 48.828125 44.09375 54.296875 
Q 44.09375 59.90625 40.109375 62.90625 
Q 36.140625 65.921875 28.71875 65.921875 
Q 24.65625 65.921875 20.015625 65.03125 
Q 15.375 64.15625 9.8125 62.3125 
L 9.8125 71.09375 
Q 15.4375 72.65625 20.34375 73.4375 
Q 25.25 74.21875 29.59375 74.21875 
Q 40.828125 74.21875 47.359375 69.109375 
Q 53.90625 64.015625 53.90625 55.328125 
Q 53.90625 49.265625 50.4375 45.09375 
Q 46.96875 40.921875 40.578125 39.3125 
z
" id="DejaVuSans-51"/>
       <path d="M 10.796875 72.90625 
L 49.515625 72.90625 
L 49.515625 64.59375 
L 19.828125 64.59375 
L 19.828125 46.734375 
Q 21.96875 47.46875 24.109375 47.828125 
Q 26.265625 48.1875 28.421875 48.1875 
Q 40.625 48.1875 47.75 41.5 
Q 54.890625 34.8125 54.890625 23.390625 
Q 54.890625 11.625 47.5625 5.09375 
Q 40.234375 -1.421875 26.90625 -1.421875 
Q 22.3125 -1.421875 17.546875 -0.640625 
Q 12.796875 0.140625 7.71875 1.703125 
L 7.71875 11.625 
Q 12.109375 9.234375 16.796875 8.0625 
Q 21.484375 6.890625 26.703125 6.890625 
Q 35.15625 6.890625 40.078125 11.328125 
Q 45.015625 15.765625 45.015625 23.390625 
Q 45.015625 31 40.078125 35.4375 
Q 35.15625 39.890625 26.703125 39.890625 
Q 22.75 39.890625 18.8125 39.015625 
Q 14.890625 38.140625 10.796875 36.28125 
z
" id="DejaVuSans-53"/>
      </defs>
      <g transform="translate(91.307088 306.476562)scale(0.22 -0.22)">
       <use xlink:href="#DejaVuSans-8722"/>
       <use x="83.789062" xlink:href="#DejaVuSans-51"/>
       <use x="147.412109" xlink:href="#DejaVuSans-53"/>
      </g>
     </g>
    </g>
    <g id="xtick_2">
     <g id="line2d_3">
      <path clip-path="url(#pc2429b5a2f)" d="M 204.051279 282.76 
L 204.051279 16.380967 
" style="fill:none;stroke:#b0b0b0;stroke-linecap:square;stroke-width:0.8;"/>
     </g>
     <g id="line2d_4">
      <g>
       <use style="stroke:#000000;stroke-width:0.8;" x="204.051279" xlink:href="#m74429acc54" y="282.76"/>
      </g>
     </g>
     <g id="text_2">
      <!-- −15 -->
      <defs>
       <path d="M 12.40625 8.296875 
L 28.515625 8.296875 
L 28.515625 63.921875 
L 10.984375 60.40625 
L 10.984375 69.390625 
L 28.421875 72.90625 
L 38.28125 72.90625 
L 38.28125 8.296875 
L 54.390625 8.296875 
L 54.390625 0 
L 12.40625 0 
z
" id="DejaVuSans-49"/>
      </defs>
      <g transform="translate(180.836122 306.476562)scale(0.22 -0.22)">
       <use xlink:href="#DejaVuSans-8722"/>
       <use x="83.789062" xlink:href="#DejaVuSans-49"/>
       <use x="147.412109" xlink:href="#DejaVuSans-53"/>
      </g>
     </g>
    </g>
    <g id="xtick_3">
     <g id="line2d_5">
      <path clip-path="url(#pc2429b5a2f)" d="M 271.198054 282.76 
L 271.198054 16.380967 
" style="fill:none;stroke:#b0b0b0;stroke-linecap:square;stroke-width:0.8;"/>
     </g>
     <g id="line2d_6">
      <g>
       <use style="stroke:#000000;stroke-width:0.8;" x="271.198054" xlink:href="#m74429acc54" y="282.76"/>
      </g>
     </g>
     <g id="text_3">
      <!-- 0 -->
      <defs>
       <path d="M 31.78125 66.40625 
Q 24.171875 66.40625 20.328125 58.90625 
Q 16.5 51.421875 16.5 36.375 
Q 16.5 21.390625 20.328125 13.890625 
Q 24.171875 6.390625 31.78125 6.390625 
Q 39.453125 6.390625 43.28125 13.890625 
Q 47.125 21.390625 47.125 36.375 
Q 47.125 51.421875 43.28125 58.90625 
Q 39.453125 66.40625 31.78125 66.40625 
z
M 31.78125 74.21875 
Q 44.046875 74.21875 50.515625 64.515625 
Q 56.984375 54.828125 56.984375 36.375 
Q 56.984375 17.96875 50.515625 8.265625 
Q 44.046875 -1.421875 31.78125 -1.421875 
Q 19.53125 -1.421875 13.0625 8.265625 
Q 6.59375 17.96875 6.59375 36.375 
Q 6.59375 54.828125 13.0625 64.515625 
Q 19.53125 74.21875 31.78125 74.21875 
z
" id="DejaVuSans-48"/>
      </defs>
      <g transform="translate(264.199304 306.476562)scale(0.22 -0.22)">
       <use xlink:href="#DejaVuSans-48"/>
      </g>
     </g>
    </g>
    <g id="xtick_4">
     <g id="line2d_7">
      <path clip-path="url(#pc2429b5a2f)" d="M 338.34483 282.76 
L 338.34483 16.380967 
" style="fill:none;stroke:#b0b0b0;stroke-linecap:square;stroke-width:0.8;"/>
     </g>
     <g id="line2d_8">
      <g>
       <use style="stroke:#000000;stroke-width:0.8;" x="338.34483" xlink:href="#m74429acc54" y="282.76"/>
      </g>
     </g>
     <g id="text_4">
      <!-- 15 -->
      <g transform="translate(324.34733 306.476562)scale(0.22 -0.22)">
       <use xlink:href="#DejaVuSans-49"/>
       <use x="63.623047" xlink:href="#DejaVuSans-53"/>
      </g>
     </g>
    </g>
    <g id="xtick_5">
     <g id="line2d_9">
      <path clip-path="url(#pc2429b5a2f)" d="M 427.873864 282.76 
L 427.873864 16.380967 
" style="fill:none;stroke:#b0b0b0;stroke-linecap:square;stroke-width:0.8;"/>
     </g>
     <g id="line2d_10">
      <g>
       <use style="stroke:#000000;stroke-width:0.8;" x="427.873864" xlink:href="#m74429acc54" y="282.76"/>
      </g>
     </g>
     <g id="text_5">
      <!-- 35 -->
      <g transform="translate(413.876364 306.476562)scale(0.22 -0.22)">
       <use xlink:href="#DejaVuSans-51"/>
       <use x="63.623047" xlink:href="#DejaVuSans-53"/>
      </g>
     </g>
    </g>
    <g id="text_6">
     <!-- Temperatura [°C] -->
     <defs>
      <path d="M -0.296875 72.90625 
L 61.375 72.90625 
L 61.375 64.59375 
L 35.5 64.59375 
L 35.5 0 
L 25.59375 0 
L 25.59375 64.59375 
L -0.296875 64.59375 
z
" id="DejaVuSans-84"/>
      <path d="M 56.203125 29.59375 
L 56.203125 25.203125 
L 14.890625 25.203125 
Q 15.484375 15.921875 20.484375 11.0625 
Q 25.484375 6.203125 34.421875 6.203125 
Q 39.59375 6.203125 44.453125 7.46875 
Q 49.3125 8.734375 54.109375 11.28125 
L 54.109375 2.78125 
Q 49.265625 0.734375 44.1875 -0.34375 
Q 39.109375 -1.421875 33.890625 -1.421875 
Q 20.796875 -1.421875 13.15625 6.1875 
Q 5.515625 13.8125 5.515625 26.8125 
Q 5.515625 40.234375 12.765625 48.109375 
Q 20.015625 56 32.328125 56 
Q 43.359375 56 49.78125 48.890625 
Q 56.203125 41.796875 56.203125 29.59375 
z
M 47.21875 32.234375 
Q 47.125 39.59375 43.09375 43.984375 
Q 39.0625 48.390625 32.421875 48.390625 
Q 24.90625 48.390625 20.390625 44.140625 
Q 15.875 39.890625 15.1875 32.171875 
z
" id="DejaVuSans-101"/>
      <path d="M 52 44.1875 
Q 55.375 50.25 60.0625 53.125 
Q 64.75 56 71.09375 56 
Q 79.640625 56 84.28125 50.015625 
Q 88.921875 44.046875 88.921875 33.015625 
L 88.921875 0 
L 79.890625 0 
L 79.890625 32.71875 
Q 79.890625 40.578125 77.09375 44.375 
Q 74.3125 48.1875 68.609375 48.1875 
Q 61.625 48.1875 57.5625 43.546875 
Q 53.515625 38.921875 53.515625 30.90625 
L 53.515625 0 
L 44.484375 0 
L 44.484375 32.71875 
Q 44.484375 40.625 41.703125 44.40625 
Q 38.921875 48.1875 33.109375 48.1875 
Q 26.21875 48.1875 22.15625 43.53125 
Q 18.109375 38.875 18.109375 30.90625 
L 18.109375 0 
L 9.078125 0 
L 9.078125 54.6875 
L 18.109375 54.6875 
L 18.109375 46.1875 
Q 21.1875 51.21875 25.484375 53.609375 
Q 29.78125 56 35.6875 56 
Q 41.65625 56 45.828125 52.96875 
Q 50 49.953125 52 44.1875 
z
" id="DejaVuSans-109"/>
      <path d="M 18.109375 8.203125 
L 18.109375 -20.796875 
L 9.078125 -20.796875 
L 9.078125 54.6875 
L 18.109375 54.6875 
L 18.109375 46.390625 
Q 20.953125 51.265625 25.265625 53.625 
Q 29.59375 56 35.59375 56 
Q 45.5625 56 51.78125 48.09375 
Q 58.015625 40.1875 58.015625 27.296875 
Q 58.015625 14.40625 51.78125 6.484375 
Q 45.5625 -1.421875 35.59375 -1.421875 
Q 29.59375 -1.421875 25.265625 0.953125 
Q 20.953125 3.328125 18.109375 8.203125 
z
M 48.6875 27.296875 
Q 48.6875 37.203125 44.609375 42.84375 
Q 40.53125 48.484375 33.40625 48.484375 
Q 26.265625 48.484375 22.1875 42.84375 
Q 18.109375 37.203125 18.109375 27.296875 
Q 18.109375 17.390625 22.1875 11.75 
Q 26.265625 6.109375 33.40625 6.109375 
Q 40.53125 6.109375 44.609375 11.75 
Q 48.6875 17.390625 48.6875 27.296875 
z
" id="DejaVuSans-112"/>
      <path d="M 41.109375 46.296875 
Q 39.59375 47.171875 37.8125 47.578125 
Q 36.03125 48 33.890625 48 
Q 26.265625 48 22.1875 43.046875 
Q 18.109375 38.09375 18.109375 28.8125 
L 18.109375 0 
L 9.078125 0 
L 9.078125 54.6875 
L 18.109375 54.6875 
L 18.109375 46.1875 
Q 20.953125 51.171875 25.484375 53.578125 
Q 30.03125 56 36.53125 56 
Q 37.453125 56 38.578125 55.875 
Q 39.703125 55.765625 41.0625 55.515625 
z
" id="DejaVuSans-114"/>
      <path d="M 34.28125 27.484375 
Q 23.390625 27.484375 19.1875 25 
Q 14.984375 22.515625 14.984375 16.5 
Q 14.984375 11.71875 18.140625 8.90625 
Q 21.296875 6.109375 26.703125 6.109375 
Q 34.1875 6.109375 38.703125 11.40625 
Q 43.21875 16.703125 43.21875 25.484375 
L 43.21875 27.484375 
z
M 52.203125 31.203125 
L 52.203125 0 
L 43.21875 0 
L 43.21875 8.296875 
Q 40.140625 3.328125 35.546875 0.953125 
Q 30.953125 -1.421875 24.3125 -1.421875 
Q 15.921875 -1.421875 10.953125 3.296875 
Q 6 8.015625 6 15.921875 
Q 6 25.140625 12.171875 29.828125 
Q 18.359375 34.515625 30.609375 34.515625 
L 43.21875 34.515625 
L 43.21875 35.40625 
Q 43.21875 41.609375 39.140625 45 
Q 35.0625 48.390625 27.6875 48.390625 
Q 23 48.390625 18.546875 47.265625 
Q 14.109375 46.140625 10.015625 43.890625 
L 10.015625 52.203125 
Q 14.9375 54.109375 19.578125 55.046875 
Q 24.21875 56 28.609375 56 
Q 40.484375 56 46.34375 49.84375 
Q 52.203125 43.703125 52.203125 31.203125 
z
" id="DejaVuSans-97"/>
      <path d="M 18.3125 70.21875 
L 18.3125 54.6875 
L 36.8125 54.6875 
L 36.8125 47.703125 
L 18.3125 47.703125 
L 18.3125 18.015625 
Q 18.3125 11.328125 20.140625 9.421875 
Q 21.96875 7.515625 27.59375 7.515625 
L 36.8125 7.515625 
L 36.8125 0 
L 27.59375 0 
Q 17.1875 0 13.234375 3.875 
Q 9.28125 7.765625 9.28125 18.015625 
L 9.28125 47.703125 
L 2.6875 47.703125 
L 2.6875 54.6875 
L 9.28125 54.6875 
L 9.28125 70.21875 
z
" id="DejaVuSans-116"/>
      <path d="M 8.5 21.578125 
L 8.5 54.6875 
L 17.484375 54.6875 
L 17.484375 21.921875 
Q 17.484375 14.15625 20.5 10.265625 
Q 23.53125 6.390625 29.59375 6.390625 
Q 36.859375 6.390625 41.078125 11.03125 
Q 45.3125 15.671875 45.3125 23.6875 
L 45.3125 54.6875 
L 54.296875 54.6875 
L 54.296875 0 
L 45.3125 0 
L 45.3125 8.40625 
Q 42.046875 3.421875 37.71875 1 
Q 33.40625 -1.421875 27.6875 -1.421875 
Q 18.265625 -1.421875 13.375 4.4375 
Q 8.5 10.296875 8.5 21.578125 
z
M 31.109375 56 
z
" id="DejaVuSans-117"/>
      <path id="DejaVuSans-32"/>
      <path d="M 8.59375 75.984375 
L 29.296875 75.984375 
L 29.296875 69 
L 17.578125 69 
L 17.578125 -6.203125 
L 29.296875 -6.203125 
L 29.296875 -13.1875 
L 8.59375 -13.1875 
z
" id="DejaVuSans-91"/>
      <path d="M 25 67.921875 
Q 21.09375 67.921875 18.40625 65.203125 
Q 15.71875 62.5 15.71875 58.59375 
Q 15.71875 54.734375 18.40625 52.078125 
Q 21.09375 49.421875 25 49.421875 
Q 28.90625 49.421875 31.59375 52.078125 
Q 34.28125 54.734375 34.28125 58.59375 
Q 34.28125 62.453125 31.5625 65.1875 
Q 28.859375 67.921875 25 67.921875 
z
M 25 74.21875 
Q 28.125 74.21875 31 73.015625 
Q 33.890625 71.828125 35.984375 69.578125 
Q 38.234375 67.390625 39.359375 64.59375 
Q 40.484375 61.8125 40.484375 58.59375 
Q 40.484375 52.15625 35.96875 47.6875 
Q 31.453125 43.21875 24.90625 43.21875 
Q 18.3125 43.21875 13.90625 47.609375 
Q 9.515625 52 9.515625 58.59375 
Q 9.515625 65.140625 14 69.671875 
Q 18.5 74.21875 25 74.21875 
z
" id="DejaVuSans-176"/>
      <path d="M 64.40625 67.28125 
L 64.40625 56.890625 
Q 59.421875 61.53125 53.78125 63.8125 
Q 48.140625 66.109375 41.796875 66.109375 
Q 29.296875 66.109375 22.65625 58.46875 
Q 16.015625 50.828125 16.015625 36.375 
Q 16.015625 21.96875 22.65625 14.328125 
Q 29.296875 6.6875 41.796875 6.6875 
Q 48.140625 6.6875 53.78125 8.984375 
Q 59.421875 11.28125 64.40625 15.921875 
L 64.40625 5.609375 
Q 59.234375 2.09375 53.4375 0.328125 
Q 47.65625 -1.421875 41.21875 -1.421875 
Q 24.65625 -1.421875 15.125 8.703125 
Q 5.609375 18.84375 5.609375 36.375 
Q 5.609375 53.953125 15.125 64.078125 
Q 24.65625 74.21875 41.21875 74.21875 
Q 47.75 74.21875 53.53125 72.484375 
Q 59.328125 70.75 64.40625 67.28125 
z
" id="DejaVuSans-67"/>
      <path d="M 30.421875 75.984375 
L 30.421875 -13.1875 
L 9.71875 -13.1875 
L 9.71875 -6.203125 
L 21.390625 -6.203125 
L 21.390625 69 
L 9.71875 69 
L 9.71875 75.984375 
z
" id="DejaVuSans-93"/>
     </defs>
     <g transform="translate(182.552186 330.24875)scale(0.2 -0.2)">
      <use xlink:href="#DejaVuSans-84"/>
      <use x="60.818359" xlink:href="#DejaVuSans-101"/>
      <use x="122.341797" xlink:href="#DejaVuSans-109"/>
      <use x="219.753906" xlink:href="#DejaVuSans-112"/>
      <use x="283.230469" xlink:href="#DejaVuSans-101"/>
      <use x="344.753906" xlink:href="#DejaVuSans-114"/>
      <use x="385.867188" xlink:href="#DejaVuSans-97"/>
      <use x="447.146484" xlink:href="#DejaVuSans-116"/>
      <use x="486.355469" xlink:href="#DejaVuSans-117"/>
      <use x="549.734375" xlink:href="#DejaVuSans-114"/>
      <use x="590.847656" xlink:href="#DejaVuSans-97"/>
      <use x="652.126953" xlink:href="#DejaVuSans-32"/>
      <use x="683.914062" xlink:href="#DejaVuSans-91"/>
      <use x="722.927734" xlink:href="#DejaVuSans-176"/>
      <use x="772.927734" xlink:href="#DejaVuSans-67"/>
      <use x="842.751953" xlink:href="#DejaVuSans-93"/>
     </g>
    </g>
   </g>
   <g id="matplotlib.axis_2">
    <g id="ytick_1">
     <g id="line2d_11">
      <path clip-path="url(#pc2429b5a2f)" d="M 93.977497 247.198958 
L 447.48 247.198958 
" style="fill:none;stroke:#b0b0b0;stroke-linecap:square;stroke-width:0.8;"/>
     </g>
     <g id="line2d_12">
      <defs>
       <path d="M 0 0 
L -3.5 0 
" id="mba4bae4fe9" style="stroke:#000000;stroke-width:0.8;"/>
      </defs>
      <g>
       <use style="stroke:#000000;stroke-width:0.8;" x="93.977497" xlink:href="#mba4bae4fe9" y="247.198958"/>
      </g>
     </g>
     <g id="text_7">
      <!-- $\mathdefault{10^{-7}}$ -->
      <defs>
       <path d="M 8.203125 72.90625 
L 55.078125 72.90625 
L 55.078125 68.703125 
L 28.609375 0 
L 18.3125 0 
L 43.21875 64.59375 
L 8.203125 64.59375 
z
" id="DejaVuSans-55"/>
      </defs>
      <g transform="translate(35.277497 255.55724)scale(0.22 -0.22)">
       <use transform="translate(0 0.684375)" xlink:href="#DejaVuSans-49"/>
       <use transform="translate(63.623047 0.684375)" xlink:href="#DejaVuSans-48"/>
       <use transform="translate(128.203125 38.965625)scale(0.7)" xlink:href="#DejaVuSans-8722"/>
       <use transform="translate(186.855469 38.965625)scale(0.7)" xlink:href="#DejaVuSans-55"/>
      </g>
     </g>
    </g>
    <g id="ytick_2">
     <g id="line2d_13">
      <path clip-path="url(#pc2429b5a2f)" d="M 93.977497 133.771466 
L 447.48 133.771466 
" style="fill:none;stroke:#b0b0b0;stroke-linecap:square;stroke-width:0.8;"/>
     </g>
     <g id="line2d_14">
      <g>
       <use style="stroke:#000000;stroke-width:0.8;" x="93.977497" xlink:href="#mba4bae4fe9" y="133.771466"/>
      </g>
     </g>
     <g id="text_8">
      <!-- $\mathdefault{10^{-6}}$ -->
      <defs>
       <path d="M 33.015625 40.375 
Q 26.375 40.375 22.484375 35.828125 
Q 18.609375 31.296875 18.609375 23.390625 
Q 18.609375 15.53125 22.484375 10.953125 
Q 26.375 6.390625 33.015625 6.390625 
Q 39.65625 6.390625 43.53125 10.953125 
Q 47.40625 15.53125 47.40625 23.390625 
Q 47.40625 31.296875 43.53125 35.828125 
Q 39.65625 40.375 33.015625 40.375 
z
M 52.59375 71.296875 
L 52.59375 62.3125 
Q 48.875 64.0625 45.09375 64.984375 
Q 41.3125 65.921875 37.59375 65.921875 
Q 27.828125 65.921875 22.671875 59.328125 
Q 17.53125 52.734375 16.796875 39.40625 
Q 19.671875 43.65625 24.015625 45.921875 
Q 28.375 48.1875 33.59375 48.1875 
Q 44.578125 48.1875 50.953125 41.515625 
Q 57.328125 34.859375 57.328125 23.390625 
Q 57.328125 12.15625 50.6875 5.359375 
Q 44.046875 -1.421875 33.015625 -1.421875 
Q 20.359375 -1.421875 13.671875 8.265625 
Q 6.984375 17.96875 6.984375 36.375 
Q 6.984375 53.65625 15.1875 63.9375 
Q 23.390625 74.21875 37.203125 74.21875 
Q 40.921875 74.21875 44.703125 73.484375 
Q 48.484375 72.75 52.59375 71.296875 
z
" id="DejaVuSans-54"/>
      </defs>
      <g transform="translate(35.277497 142.129747)scale(0.22 -0.22)">
       <use transform="translate(0 0.765625)" xlink:href="#DejaVuSans-49"/>
       <use transform="translate(63.623047 0.765625)" xlink:href="#DejaVuSans-48"/>
       <use transform="translate(128.203125 39.046875)scale(0.7)" xlink:href="#DejaVuSans-8722"/>
       <use transform="translate(186.855469 39.046875)scale(0.7)" xlink:href="#DejaVuSans-54"/>
      </g>
     </g>
    </g>
    <g id="ytick_3">
     <g id="line2d_15">
      <path clip-path="url(#pc2429b5a2f)" d="M 93.977497 20.343973 
L 447.48 20.343973 
" style="fill:none;stroke:#b0b0b0;stroke-linecap:square;stroke-width:0.8;"/>
     </g>
     <g id="line2d_16">
      <g>
       <use style="stroke:#000000;stroke-width:0.8;" x="93.977497" xlink:href="#mba4bae4fe9" y="20.343973"/>
      </g>
     </g>
     <g id="text_9">
      <!-- $\mathdefault{10^{-5}}$ -->
      <g transform="translate(35.277497 28.702254)scale(0.22 -0.22)">
       <use transform="translate(0 0.684375)" xlink:href="#DejaVuSans-49"/>
       <use transform="translate(63.623047 0.684375)" xlink:href="#DejaVuSans-48"/>
       <use transform="translate(128.203125 38.965625)scale(0.7)" xlink:href="#DejaVuSans-8722"/>
       <use transform="translate(186.855469 38.965625)scale(0.7)" xlink:href="#DejaVuSans-53"/>
      </g>
     </g>
    </g>
    <g id="ytick_4">
     <g id="line2d_17">
      <defs>
       <path d="M 0 0 
L -2 0 
" id="mdb13e0e6e3" style="stroke:#000000;stroke-width:0.6;"/>
      </defs>
      <g>
       <use style="stroke:#000000;stroke-width:0.6;" x="93.977497" xlink:href="#mdb13e0e6e3" y="281.344036"/>
      </g>
     </g>
    </g>
    <g id="ytick_5">
     <g id="line2d_18">
      <g>
       <use style="stroke:#000000;stroke-width:0.6;" x="93.977497" xlink:href="#mdb13e0e6e3" y="272.362706"/>
      </g>
     </g>
    </g>
    <g id="ytick_6">
     <g id="line2d_19">
      <g>
       <use style="stroke:#000000;stroke-width:0.6;" x="93.977497" xlink:href="#mdb13e0e6e3" y="264.769099"/>
      </g>
     </g>
    </g>
    <g id="ytick_7">
     <g id="line2d_20">
      <g>
       <use style="stroke:#000000;stroke-width:0.6;" x="93.977497" xlink:href="#mdb13e0e6e3" y="258.191218"/>
      </g>
     </g>
    </g>
    <g id="ytick_8">
     <g id="line2d_21">
      <g>
       <use style="stroke:#000000;stroke-width:0.6;" x="93.977497" xlink:href="#mdb13e0e6e3" y="252.389116"/>
      </g>
     </g>
    </g>
    <g id="ytick_9">
     <g id="line2d_22">
      <g>
       <use style="stroke:#000000;stroke-width:0.6;" x="93.977497" xlink:href="#mdb13e0e6e3" y="213.053881"/>
      </g>
     </g>
    </g>
    <g id="ytick_10">
     <g id="line2d_23">
      <g>
       <use style="stroke:#000000;stroke-width:0.6;" x="93.977497" xlink:href="#mdb13e0e6e3" y="193.080291"/>
      </g>
     </g>
    </g>
    <g id="ytick_11">
     <g id="line2d_24">
      <g>
       <use style="stroke:#000000;stroke-width:0.6;" x="93.977497" xlink:href="#mdb13e0e6e3" y="178.908803"/>
      </g>
     </g>
    </g>
    <g id="ytick_12">
     <g id="line2d_25">
      <g>
       <use style="stroke:#000000;stroke-width:0.6;" x="93.977497" xlink:href="#mdb13e0e6e3" y="167.916543"/>
      </g>
     </g>
    </g>
    <g id="ytick_13">
     <g id="line2d_26">
      <g>
       <use style="stroke:#000000;stroke-width:0.6;" x="93.977497" xlink:href="#mdb13e0e6e3" y="158.935213"/>
      </g>
     </g>
    </g>
    <g id="ytick_14">
     <g id="line2d_27">
      <g>
       <use style="stroke:#000000;stroke-width:0.6;" x="93.977497" xlink:href="#mdb13e0e6e3" y="151.341607"/>
      </g>
     </g>
    </g>
    <g id="ytick_15">
     <g id="line2d_28">
      <g>
       <use style="stroke:#000000;stroke-width:0.6;" x="93.977497" xlink:href="#mdb13e0e6e3" y="144.763725"/>
      </g>
     </g>
    </g>
    <g id="ytick_16">
     <g id="line2d_29">
      <g>
       <use style="stroke:#000000;stroke-width:0.6;" x="93.977497" xlink:href="#mdb13e0e6e3" y="138.961623"/>
      </g>
     </g>
    </g>
    <g id="ytick_17">
     <g id="line2d_30">
      <g>
       <use style="stroke:#000000;stroke-width:0.6;" x="93.977497" xlink:href="#mdb13e0e6e3" y="99.626388"/>
      </g>
     </g>
    </g>
    <g id="ytick_18">
     <g id="line2d_31">
      <g>
       <use style="stroke:#000000;stroke-width:0.6;" x="93.977497" xlink:href="#mdb13e0e6e3" y="79.652798"/>
      </g>
     </g>
    </g>
    <g id="ytick_19">
     <g id="line2d_32">
      <g>
       <use style="stroke:#000000;stroke-width:0.6;" x="93.977497" xlink:href="#mdb13e0e6e3" y="65.48131"/>
      </g>
     </g>
    </g>
    <g id="ytick_20">
     <g id="line2d_33">
      <g>
       <use style="stroke:#000000;stroke-width:0.6;" x="93.977497" xlink:href="#mdb13e0e6e3" y="54.48905"/>
      </g>
     </g>
    </g>
    <g id="ytick_21">
     <g id="line2d_34">
      <g>
       <use style="stroke:#000000;stroke-width:0.6;" x="93.977497" xlink:href="#mdb13e0e6e3" y="45.50772"/>
      </g>
     </g>
    </g>
    <g id="ytick_22">
     <g id="line2d_35">
      <g>
       <use style="stroke:#000000;stroke-width:0.6;" x="93.977497" xlink:href="#mdb13e0e6e3" y="37.914114"/>
      </g>
     </g>
    </g>
    <g id="ytick_23">
     <g id="line2d_36">
      <g>
       <use style="stroke:#000000;stroke-width:0.6;" x="93.977497" xlink:href="#mdb13e0e6e3" y="31.336233"/>
      </g>
     </g>
    </g>
    <g id="ytick_24">
     <g id="line2d_37">
      <g>
       <use style="stroke:#000000;stroke-width:0.6;" x="93.977497" xlink:href="#mdb13e0e6e3" y="25.53413"/>
      </g>
     </g>
    </g>
    <g id="text_10">
     <!-- Dark Current [A] -->
     <defs>
      <path d="M 19.671875 64.796875 
L 19.671875 8.109375 
L 31.59375 8.109375 
Q 46.6875 8.109375 53.6875 14.9375 
Q 60.6875 21.78125 60.6875 36.53125 
Q 60.6875 51.171875 53.6875 57.984375 
Q 46.6875 64.796875 31.59375 64.796875 
z
M 9.8125 72.90625 
L 30.078125 72.90625 
Q 51.265625 72.90625 61.171875 64.09375 
Q 71.09375 55.28125 71.09375 36.53125 
Q 71.09375 17.671875 61.125 8.828125 
Q 51.171875 0 30.078125 0 
L 9.8125 0 
z
" id="DejaVuSans-68"/>
      <path d="M 9.078125 75.984375 
L 18.109375 75.984375 
L 18.109375 31.109375 
L 44.921875 54.6875 
L 56.390625 54.6875 
L 27.390625 29.109375 
L 57.625 0 
L 45.90625 0 
L 18.109375 26.703125 
L 18.109375 0 
L 9.078125 0 
z
" id="DejaVuSans-107"/>
      <path d="M 54.890625 33.015625 
L 54.890625 0 
L 45.90625 0 
L 45.90625 32.71875 
Q 45.90625 40.484375 42.875 44.328125 
Q 39.84375 48.1875 33.796875 48.1875 
Q 26.515625 48.1875 22.3125 43.546875 
Q 18.109375 38.921875 18.109375 30.90625 
L 18.109375 0 
L 9.078125 0 
L 9.078125 54.6875 
L 18.109375 54.6875 
L 18.109375 46.1875 
Q 21.34375 51.125 25.703125 53.5625 
Q 30.078125 56 35.796875 56 
Q 45.21875 56 50.046875 50.171875 
Q 54.890625 44.34375 54.890625 33.015625 
z
" id="DejaVuSans-110"/>
      <path d="M 34.1875 63.1875 
L 20.796875 26.90625 
L 47.609375 26.90625 
z
M 28.609375 72.90625 
L 39.796875 72.90625 
L 67.578125 0 
L 57.328125 0 
L 50.6875 18.703125 
L 17.828125 18.703125 
L 11.1875 0 
L 0.78125 0 
z
" id="DejaVuSans-65"/>
     </defs>
     <g transform="translate(26.702184 240.516421)rotate(-90)scale(0.22 -0.22)">
      <use xlink:href="#DejaVuSans-68"/>
      <use x="77.001953" xlink:href="#DejaVuSans-97"/>
      <use x="138.28125" xlink:href="#DejaVuSans-114"/>
      <use x="179.394531" xlink:href="#DejaVuSans-107"/>
      <use x="237.304688" xlink:href="#DejaVuSans-32"/>
      <use x="269.091797" xlink:href="#DejaVuSans-67"/>
      <use x="338.916016" xlink:href="#DejaVuSans-117"/>
      <use x="402.294922" xlink:href="#DejaVuSans-114"/>
      <use x="443.392578" xlink:href="#DejaVuSans-114"/>
      <use x="484.474609" xlink:href="#DejaVuSans-101"/>
      <use x="545.998047" xlink:href="#DejaVuSans-110"/>
      <use x="609.376953" xlink:href="#DejaVuSans-116"/>
      <use x="648.585938" xlink:href="#DejaVuSans-32"/>
      <use x="680.373047" xlink:href="#DejaVuSans-91"/>
      <use x="719.386719" xlink:href="#DejaVuSans-65"/>
      <use x="787.794922" xlink:href="#DejaVuSans-93"/>
     </g>
    </g>
   </g>
   <g id="LineCollection_1">
    <path clip-path="url(#pc2429b5a2f)" d="M 176.989444 225.804359 
L 182.931708 225.804359 
" style="fill:none;stroke:#000000;stroke-width:1.5;"/>
    <path clip-path="url(#pc2429b5a2f)" d="M 113.955888 265.491469 
L 119.840797 265.491469 
" style="fill:none;stroke:#000000;stroke-width:1.5;"/>
    <path clip-path="url(#pc2429b5a2f)" d="M 116.867482 265.725183 
L 122.76091 265.725183 
" style="fill:none;stroke:#000000;stroke-width:1.5;"/>
    <path clip-path="url(#pc2429b5a2f)" d="M 129.139062 258.403435 
L 135.038826 258.403435 
" style="fill:none;stroke:#000000;stroke-width:1.5;"/>
    <path clip-path="url(#pc2429b5a2f)" d="M 144.971573 254.15027 
L 150.885277 254.15027 
" style="fill:none;stroke:#000000;stroke-width:1.5;"/>
    <path clip-path="url(#pc2429b5a2f)" d="M 165.79693 233.769107 
L 171.729056 233.769107 
" style="fill:none;stroke:#000000;stroke-width:1.5;"/>
    <path clip-path="url(#pc2429b5a2f)" d="M 189.967282 217.747102 
L 195.923157 217.747102 
" style="fill:none;stroke:#000000;stroke-width:1.5;"/>
    <path clip-path="url(#pc2429b5a2f)" d="M 204.600797 206.30312 
L 210.570213 206.30312 
" style="fill:none;stroke:#000000;stroke-width:1.5;"/>
    <path clip-path="url(#pc2429b5a2f)" d="M 219.477518 193.401697 
L 225.457495 193.401697 
" style="fill:none;stroke:#000000;stroke-width:1.5;"/>
    <path clip-path="url(#pc2429b5a2f)" d="M 260.710778 162.367657 
L 266.727059 162.367657 
" style="fill:none;stroke:#000000;stroke-width:1.5;"/>
    <path clip-path="url(#pc2429b5a2f)" d="M 273.651948 153.674958 
L 279.68008 153.674958 
" style="fill:none;stroke:#000000;stroke-width:1.5;"/>
    <path clip-path="url(#pc2429b5a2f)" d="M 285.056198 144.526674 
L 291.20371 144.526674 
" style="fill:none;stroke:#000000;stroke-width:1.5;"/>
    <path clip-path="url(#pc2429b5a2f)" d="M 293.423115 139.383566 
L 299.475348 139.383566 
" style="fill:none;stroke:#000000;stroke-width:1.5;"/>
    <path clip-path="url(#pc2429b5a2f)" d="M 364.28822 85.532301 
L 370.401704 85.532301 
" style="fill:none;stroke:#000000;stroke-width:1.5;"/>
    <path clip-path="url(#pc2429b5a2f)" d="M 400.72473 53.988061 
L 406.879141 53.988061 
" style="fill:none;stroke:#000000;stroke-width:1.5;"/>
    <path clip-path="url(#pc2429b5a2f)" d="M 404.53909 49.067791 
L 410.691764 49.067791 
" style="fill:none;stroke:#000000;stroke-width:1.5;"/>
    <path clip-path="url(#pc2429b5a2f)" d="M 425.239528 28.510137 
L 431.411704 28.510137 
" style="fill:none;stroke:#000000;stroke-width:1.5;"/>
   </g>
   <g id="LineCollection_2">
    <path clip-path="url(#pc2429b5a2f)" d="M 179.960576 225.976509 
L 179.960576 225.632809 
" style="fill:none;stroke:#000000;stroke-width:1.5;"/>
    <path clip-path="url(#pc2429b5a2f)" d="M 116.898342 265.592541 
L 116.898342 265.390603 
" style="fill:none;stroke:#000000;stroke-width:1.5;"/>
    <path clip-path="url(#pc2429b5a2f)" d="M 119.814196 265.826596 
L 119.814196 265.623979 
" style="fill:none;stroke:#000000;stroke-width:1.5;"/>
    <path clip-path="url(#pc2429b5a2f)" d="M 132.088944 258.494919 
L 132.088944 258.312121 
" style="fill:none;stroke:#000000;stroke-width:1.5;"/>
    <path clip-path="url(#pc2429b5a2f)" d="M 147.928425 254.236629 
L 147.928425 254.064062 
" style="fill:none;stroke:#000000;stroke-width:1.5;"/>
    <path clip-path="url(#pc2429b5a2f)" d="M 168.762993 233.969359 
L 168.762993 233.569666 
" style="fill:none;stroke:#000000;stroke-width:1.5;"/>
    <path clip-path="url(#pc2429b5a2f)" d="M 192.945219 217.895102 
L 192.945219 217.599546 
" style="fill:none;stroke:#000000;stroke-width:1.5;"/>
    <path clip-path="url(#pc2429b5a2f)" d="M 207.585505 206.422962 
L 207.585505 206.183569 
" style="fill:none;stroke:#000000;stroke-width:1.5;"/>
    <path clip-path="url(#pc2429b5a2f)" d="M 222.467506 193.496743 
L 222.467506 193.306834 
" style="fill:none;stroke:#000000;stroke-width:1.5;"/>
    <path clip-path="url(#pc2429b5a2f)" d="M 263.718918 162.424018 
L 263.718918 162.311361 
" style="fill:none;stroke:#000000;stroke-width:1.5;"/>
    <path clip-path="url(#pc2429b5a2f)" d="M 276.666014 153.724191 
L 276.666014 153.625774 
" style="fill:none;stroke:#000000;stroke-width:1.5;"/>
    <path clip-path="url(#pc2429b5a2f)" d="M 288.129954 144.569649 
L 288.129954 144.483737 
" style="fill:none;stroke:#000000;stroke-width:1.5;"/>
    <path clip-path="url(#pc2429b5a2f)" d="M 296.449231 139.4235 
L 296.449231 139.343664 
" style="fill:none;stroke:#000000;stroke-width:1.5;"/>
    <path clip-path="url(#pc2429b5a2f)" d="M 367.344962 85.572385 
L 367.344962 85.492249 
" style="fill:none;stroke:#000000;stroke-width:1.5;"/>
    <path clip-path="url(#pc2429b5a2f)" d="M 403.801936 54.015013 
L 403.801936 53.961125 
" style="fill:none;stroke:#000000;stroke-width:1.5;"/>
    <path clip-path="url(#pc2429b5a2f)" d="M 407.615427 49.093351 
L 407.615427 49.042245 
" style="fill:none;stroke:#000000;stroke-width:1.5;"/>
    <path clip-path="url(#pc2429b5a2f)" d="M 428.325616 28.531178 
L 428.325616 28.489105 
" style="fill:none;stroke:#000000;stroke-width:1.5;"/>
   </g>
   <g id="line2d_38">
    <defs>
     <path d="M 0 3 
L 0 -3 
" id="m509fee72d3" style="stroke:#000000;"/>
    </defs>
    <g clip-path="url(#pc2429b5a2f)">
     <use style="stroke:#000000;" x="176.989444" xlink:href="#m509fee72d3" y="225.804359"/>
     <use style="stroke:#000000;" x="113.955888" xlink:href="#m509fee72d3" y="265.491469"/>
     <use style="stroke:#000000;" x="116.867482" xlink:href="#m509fee72d3" y="265.725183"/>
     <use style="stroke:#000000;" x="129.139062" xlink:href="#m509fee72d3" y="258.403435"/>
     <use style="stroke:#000000;" x="144.971573" xlink:href="#m509fee72d3" y="254.15027"/>
     <use style="stroke:#000000;" x="165.79693" xlink:href="#m509fee72d3" y="233.769107"/>
     <use style="stroke:#000000;" x="189.967282" xlink:href="#m509fee72d3" y="217.747102"/>
     <use style="stroke:#000000;" x="204.600797" xlink:href="#m509fee72d3" y="206.30312"/>
     <use style="stroke:#000000;" x="219.477518" xlink:href="#m509fee72d3" y="193.401697"/>
     <use style="stroke:#000000;" x="260.710778" xlink:href="#m509fee72d3" y="162.367657"/>
     <use style="stroke:#000000;" x="273.651948" xlink:href="#m509fee72d3" y="153.674958"/>
     <use style="stroke:#000000;" x="285.056198" xlink:href="#m509fee72d3" y="144.526674"/>
     <use style="stroke:#000000;" x="293.423115" xlink:href="#m509fee72d3" y="139.383566"/>
     <use style="stroke:#000000;" x="364.28822" xlink:href="#m509fee72d3" y="85.532301"/>
     <use style="stroke:#000000;" x="400.72473" xlink:href="#m509fee72d3" y="53.988061"/>
     <use style="stroke:#000000;" x="404.53909" xlink:href="#m509fee72d3" y="49.067791"/>
     <use style="stroke:#000000;" x="425.239528" xlink:href="#m509fee72d3" y="28.510137"/>
    </g>
   </g>
   <g id="line2d_39">
    <g clip-path="url(#pc2429b5a2f)">
     <use style="stroke:#000000;" x="182.931708" xlink:href="#m509fee72d3" y="225.804359"/>
     <use style="stroke:#000000;" x="119.840797" xlink:href="#m509fee72d3" y="265.491469"/>
     <use style="stroke:#000000;" x="122.76091" xlink:href="#m509fee72d3" y="265.725183"/>
     <use style="stroke:#000000;" x="135.038826" xlink:href="#m509fee72d3" y="258.403435"/>
     <use style="stroke:#000000;" x="150.885277" xlink:href="#m509fee72d3" y="254.15027"/>
     <use style="stroke:#000000;" x="171.729056" xlink:href="#m509fee72d3" y="233.769107"/>
     <use style="stroke:#000000;" x="195.923157" xlink:href="#m509fee72d3" y="217.747102"/>
     <use style="stroke:#000000;" x="210.570213" xlink:href="#m509fee72d3" y="206.30312"/>
     <use style="stroke:#000000;" x="225.457495" xlink:href="#m509fee72d3" y="193.401697"/>
     <use style="stroke:#000000;" x="266.727059" xlink:href="#m509fee72d3" y="162.367657"/>
     <use style="stroke:#000000;" x="279.68008" xlink:href="#m509fee72d3" y="153.674958"/>
     <use style="stroke:#000000;" x="291.20371" xlink:href="#m509fee72d3" y="144.526674"/>
     <use style="stroke:#000000;" x="299.475348" xlink:href="#m509fee72d3" y="139.383566"/>
     <use style="stroke:#000000;" x="370.401704" xlink:href="#m509fee72d3" y="85.532301"/>
     <use style="stroke:#000000;" x="406.879141" xlink:href="#m509fee72d3" y="53.988061"/>
     <use style="stroke:#000000;" x="410.691764" xlink:href="#m509fee72d3" y="49.067791"/>
     <use style="stroke:#000000;" x="431.411704" xlink:href="#m509fee72d3" y="28.510137"/>
    </g>
   </g>
   <g id="line2d_40">
    <defs>
     <path d="M 3 0 
L -3 -0 
" id="me443ea13af" style="stroke:#000000;"/>
    </defs>
    <g clip-path="url(#pc2429b5a2f)">
     <use style="stroke:#000000;" x="179.960576" xlink:href="#me443ea13af" y="225.976509"/>
     <use style="stroke:#000000;" x="116.898342" xlink:href="#me443ea13af" y="265.592541"/>
     <use style="stroke:#000000;" x="119.814196" xlink:href="#me443ea13af" y="265.826596"/>
     <use style="stroke:#000000;" x="132.088944" xlink:href="#me443ea13af" y="258.494919"/>
     <use style="stroke:#000000;" x="147.928425" xlink:href="#me443ea13af" y="254.236629"/>
     <use style="stroke:#000000;" x="168.762993" xlink:href="#me443ea13af" y="233.969359"/>
     <use style="stroke:#000000;" x="192.945219" xlink:href="#me443ea13af" y="217.895102"/>
     <use style="stroke:#000000;" x="207.585505" xlink:href="#me443ea13af" y="206.422962"/>
     <use style="stroke:#000000;" x="222.467506" xlink:href="#me443ea13af" y="193.496743"/>
     <use style="stroke:#000000;" x="263.718918" xlink:href="#me443ea13af" y="162.424018"/>
     <use style="stroke:#000000;" x="276.666014" xlink:href="#me443ea13af" y="153.724191"/>
     <use style="stroke:#000000;" x="288.129954" xlink:href="#me443ea13af" y="144.569649"/>
     <use style="stroke:#000000;" x="296.449231" xlink:href="#me443ea13af" y="139.4235"/>
     <use style="stroke:#000000;" x="367.344962" xlink:href="#me443ea13af" y="85.572385"/>
     <use style="stroke:#000000;" x="403.801936" xlink:href="#me443ea13af" y="54.015013"/>
     <use style="stroke:#000000;" x="407.615427" xlink:href="#me443ea13af" y="49.093351"/>
     <use style="stroke:#000000;" x="428.325616" xlink:href="#me443ea13af" y="28.531178"/>
    </g>
   </g>
   <g id="line2d_41">
    <g clip-path="url(#pc2429b5a2f)">
     <use style="stroke:#000000;" x="179.960576" xlink:href="#me443ea13af" y="225.632809"/>
     <use style="stroke:#000000;" x="116.898342" xlink:href="#me443ea13af" y="265.390603"/>
     <use style="stroke:#000000;" x="119.814196" xlink:href="#me443ea13af" y="265.623979"/>
     <use style="stroke:#000000;" x="132.088944" xlink:href="#me443ea13af" y="258.312121"/>
     <use style="stroke:#000000;" x="147.928425" xlink:href="#me443ea13af" y="254.064062"/>
     <use style="stroke:#000000;" x="168.762993" xlink:href="#me443ea13af" y="233.569666"/>
     <use style="stroke:#000000;" x="192.945219" xlink:href="#me443ea13af" y="217.599546"/>
     <use style="stroke:#000000;" x="207.585505" xlink:href="#me443ea13af" y="206.183569"/>
     <use style="stroke:#000000;" x="222.467506" xlink:href="#me443ea13af" y="193.306834"/>
     <use style="stroke:#000000;" x="263.718918" xlink:href="#me443ea13af" y="162.311361"/>
     <use style="stroke:#000000;" x="276.666014" xlink:href="#me443ea13af" y="153.625774"/>
     <use style="stroke:#000000;" x="288.129954" xlink:href="#me443ea13af" y="144.483737"/>
     <use style="stroke:#000000;" x="296.449231" xlink:href="#me443ea13af" y="139.343664"/>
     <use style="stroke:#000000;" x="367.344962" xlink:href="#me443ea13af" y="85.492249"/>
     <use style="stroke:#000000;" x="403.801936" xlink:href="#me443ea13af" y="53.961125"/>
     <use style="stroke:#000000;" x="407.615427" xlink:href="#me443ea13af" y="49.042245"/>
     <use style="stroke:#000000;" x="428.325616" xlink:href="#me443ea13af" y="28.489105"/>
    </g>
   </g>
   <g id="line2d_42">
    <path clip-path="url(#pc2429b5a2f)" d="M 179.960576 224.656205 
L 116.898342 270.651862 
L 119.814196 268.525128 
L 132.088944 259.572304 
L 147.928425 248.019472 
L 168.762993 232.823378 
L 192.945219 215.185604 
L 207.585505 204.507429 
L 222.467506 193.652954 
L 263.718918 163.56544 
L 276.666014 154.122227 
L 288.129954 145.76078 
L 296.449231 139.692955 
" style="fill:none;stroke:#0000ff;stroke-dasharray:7.4,3.2;stroke-dashoffset:0;stroke-width:2;"/>
   </g>
   <g id="line2d_43">
    <defs>
     <path d="M -3 3 
L 3 3 
L 3 -3 
L -3 -3 
z
" id="m4d24bf409b" style="stroke:#000000;stroke-linejoin:miter;"/>
    </defs>
    <g clip-path="url(#pc2429b5a2f)">
     <use style="stroke:#000000;stroke-linejoin:miter;" x="179.960576" xlink:href="#m4d24bf409b" y="225.804359"/>
     <use style="stroke:#000000;stroke-linejoin:miter;" x="116.898342" xlink:href="#m4d24bf409b" y="265.491469"/>
     <use style="stroke:#000000;stroke-linejoin:miter;" x="119.814196" xlink:href="#m4d24bf409b" y="265.725183"/>
     <use style="stroke:#000000;stroke-linejoin:miter;" x="132.088944" xlink:href="#m4d24bf409b" y="258.403435"/>
     <use style="stroke:#000000;stroke-linejoin:miter;" x="147.928425" xlink:href="#m4d24bf409b" y="254.15027"/>
     <use style="stroke:#000000;stroke-linejoin:miter;" x="168.762993" xlink:href="#m4d24bf409b" y="233.769107"/>
     <use style="stroke:#000000;stroke-linejoin:miter;" x="192.945219" xlink:href="#m4d24bf409b" y="217.747102"/>
     <use style="stroke:#000000;stroke-linejoin:miter;" x="207.585505" xlink:href="#m4d24bf409b" y="206.30312"/>
     <use style="stroke:#000000;stroke-linejoin:miter;" x="222.467506" xlink:href="#m4d24bf409b" y="193.401697"/>
     <use style="stroke:#000000;stroke-linejoin:miter;" x="263.718918" xlink:href="#m4d24bf409b" y="162.367657"/>
     <use style="stroke:#000000;stroke-linejoin:miter;" x="276.666014" xlink:href="#m4d24bf409b" y="153.674958"/>
     <use style="stroke:#000000;stroke-linejoin:miter;" x="288.129954" xlink:href="#m4d24bf409b" y="144.526674"/>
     <use style="stroke:#000000;stroke-linejoin:miter;" x="296.449231" xlink:href="#m4d24bf409b" y="139.383566"/>
     <use style="stroke:#000000;stroke-linejoin:miter;" x="367.344962" xlink:href="#m4d24bf409b" y="85.532301"/>
     <use style="stroke:#000000;stroke-linejoin:miter;" x="403.801936" xlink:href="#m4d24bf409b" y="53.988061"/>
     <use style="stroke:#000000;stroke-linejoin:miter;" x="407.615427" xlink:href="#m4d24bf409b" y="49.067791"/>
     <use style="stroke:#000000;stroke-linejoin:miter;" x="428.325616" xlink:href="#m4d24bf409b" y="28.510137"/>
    </g>
   </g>
   <g id="patch_4">
    <path d="M 93.977497 282.76 
L 93.977497 16.380967 
" style="fill:none;stroke:#000000;stroke-linecap:square;stroke-linejoin:miter;stroke-width:0.8;"/>
   </g>
   <g id="patch_5">
    <path d="M 447.48 282.76 
L 447.48 16.380967 
" style="fill:none;stroke:#000000;stroke-linecap:square;stroke-linejoin:miter;stroke-width:0.8;"/>
   </g>
   <g id="patch_6">
    <path d="M 93.977497 282.76 
L 447.48 282.76 
" style="fill:none;stroke:#000000;stroke-linecap:square;stroke-linejoin:miter;stroke-width:0.8;"/>
   </g>
   <g id="patch_7">
    <path d="M 93.977497 16.380967 
L 447.48 16.380967 
" style="fill:none;stroke:#000000;stroke-linecap:square;stroke-linejoin:miter;stroke-width:0.8;"/>
   </g>
   <g id="text_11">
    <!-- Región  -->
    <defs>
     <path d="M 44.390625 34.1875 
Q 47.5625 33.109375 50.5625 29.59375 
Q 53.5625 26.078125 56.59375 19.921875 
L 66.609375 0 
L 56 0 
L 46.6875 18.703125 
Q 43.0625 26.03125 39.671875 28.421875 
Q 36.28125 30.8125 30.421875 30.8125 
L 19.671875 30.8125 
L 19.671875 0 
L 9.8125 0 
L 9.8125 72.90625 
L 32.078125 72.90625 
Q 44.578125 72.90625 50.734375 67.671875 
Q 56.890625 62.453125 56.890625 51.90625 
Q 56.890625 45.015625 53.6875 40.46875 
Q 50.484375 35.9375 44.390625 34.1875 
z
M 19.671875 64.796875 
L 19.671875 38.921875 
L 32.078125 38.921875 
Q 39.203125 38.921875 42.84375 42.21875 
Q 46.484375 45.515625 46.484375 51.90625 
Q 46.484375 58.296875 42.84375 61.546875 
Q 39.203125 64.796875 32.078125 64.796875 
z
" id="DejaVuSans-82"/>
     <path d="M 45.40625 27.984375 
Q 45.40625 37.75 41.375 43.109375 
Q 37.359375 48.484375 30.078125 48.484375 
Q 22.859375 48.484375 18.828125 43.109375 
Q 14.796875 37.75 14.796875 27.984375 
Q 14.796875 18.265625 18.828125 12.890625 
Q 22.859375 7.515625 30.078125 7.515625 
Q 37.359375 7.515625 41.375 12.890625 
Q 45.40625 18.265625 45.40625 27.984375 
z
M 54.390625 6.78125 
Q 54.390625 -7.171875 48.1875 -13.984375 
Q 42 -20.796875 29.203125 -20.796875 
Q 24.46875 -20.796875 20.265625 -20.09375 
Q 16.0625 -19.390625 12.109375 -17.921875 
L 12.109375 -9.1875 
Q 16.0625 -11.328125 19.921875 -12.34375 
Q 23.78125 -13.375 27.78125 -13.375 
Q 36.625 -13.375 41.015625 -8.765625 
Q 45.40625 -4.15625 45.40625 5.171875 
L 45.40625 9.625 
Q 42.625 4.78125 38.28125 2.390625 
Q 33.9375 0 27.875 0 
Q 17.828125 0 11.671875 7.65625 
Q 5.515625 15.328125 5.515625 27.984375 
Q 5.515625 40.671875 11.671875 48.328125 
Q 17.828125 56 27.875 56 
Q 33.9375 56 38.28125 53.609375 
Q 42.625 51.21875 45.40625 46.390625 
L 45.40625 54.6875 
L 54.390625 54.6875 
z
" id="DejaVuSans-103"/>
     <path d="M 9.421875 54.6875 
L 18.40625 54.6875 
L 18.40625 0 
L 9.421875 0 
z
M 9.421875 75.984375 
L 18.40625 75.984375 
L 18.40625 64.59375 
L 9.421875 64.59375 
z
" id="DejaVuSans-105"/>
     <path d="M 30.609375 48.390625 
Q 23.390625 48.390625 19.1875 42.75 
Q 14.984375 37.109375 14.984375 27.296875 
Q 14.984375 17.484375 19.15625 11.84375 
Q 23.34375 6.203125 30.609375 6.203125 
Q 37.796875 6.203125 41.984375 11.859375 
Q 46.1875 17.53125 46.1875 27.296875 
Q 46.1875 37.015625 41.984375 42.703125 
Q 37.796875 48.390625 30.609375 48.390625 
z
M 30.609375 56 
Q 42.328125 56 49.015625 48.375 
Q 55.71875 40.765625 55.71875 27.296875 
Q 55.71875 13.875 49.015625 6.21875 
Q 42.328125 -1.421875 30.609375 -1.421875 
Q 18.84375 -1.421875 12.171875 6.21875 
Q 5.515625 13.875 5.515625 27.296875 
Q 5.515625 40.765625 12.171875 48.375 
Q 18.84375 56 30.609375 56 
z
M 37.40625 79.984375 
L 47.125 79.984375 
L 31.21875 61.625 
L 23.734375 61.625 
z
" id="DejaVuSans-243"/>
    </defs>
    <g transform="translate(127.951599 51.458267)scale(0.25 -0.25)">
     <use xlink:href="#DejaVuSans-82"/>
     <use x="69.419922" xlink:href="#DejaVuSans-101"/>
     <use x="130.943359" xlink:href="#DejaVuSans-103"/>
     <use x="194.419922" xlink:href="#DejaVuSans-105"/>
     <use x="222.203125" xlink:href="#DejaVuSans-243"/>
     <use x="283.384766" xlink:href="#DejaVuSans-110"/>
     <use x="346.763672" xlink:href="#DejaVuSans-32"/>
    </g>
    <!-- exponencial -->
    <defs>
     <path d="M 54.890625 54.6875 
L 35.109375 28.078125 
L 55.90625 0 
L 45.3125 0 
L 29.390625 21.484375 
L 13.484375 0 
L 2.875 0 
L 24.125 28.609375 
L 4.6875 54.6875 
L 15.28125 54.6875 
L 29.78125 35.203125 
L 44.28125 54.6875 
z
" id="DejaVuSans-120"/>
     <path d="M 30.609375 48.390625 
Q 23.390625 48.390625 19.1875 42.75 
Q 14.984375 37.109375 14.984375 27.296875 
Q 14.984375 17.484375 19.15625 11.84375 
Q 23.34375 6.203125 30.609375 6.203125 
Q 37.796875 6.203125 41.984375 11.859375 
Q 46.1875 17.53125 46.1875 27.296875 
Q 46.1875 37.015625 41.984375 42.703125 
Q 37.796875 48.390625 30.609375 48.390625 
z
M 30.609375 56 
Q 42.328125 56 49.015625 48.375 
Q 55.71875 40.765625 55.71875 27.296875 
Q 55.71875 13.875 49.015625 6.21875 
Q 42.328125 -1.421875 30.609375 -1.421875 
Q 18.84375 -1.421875 12.171875 6.21875 
Q 5.515625 13.875 5.515625 27.296875 
Q 5.515625 40.765625 12.171875 48.375 
Q 18.84375 56 30.609375 56 
z
" id="DejaVuSans-111"/>
     <path d="M 48.78125 52.59375 
L 48.78125 44.1875 
Q 44.96875 46.296875 41.140625 47.34375 
Q 37.3125 48.390625 33.40625 48.390625 
Q 24.65625 48.390625 19.8125 42.84375 
Q 14.984375 37.3125 14.984375 27.296875 
Q 14.984375 17.28125 19.8125 11.734375 
Q 24.65625 6.203125 33.40625 6.203125 
Q 37.3125 6.203125 41.140625 7.25 
Q 44.96875 8.296875 48.78125 10.40625 
L 48.78125 2.09375 
Q 45.015625 0.34375 40.984375 -0.53125 
Q 36.96875 -1.421875 32.421875 -1.421875 
Q 20.0625 -1.421875 12.78125 6.34375 
Q 5.515625 14.109375 5.515625 27.296875 
Q 5.515625 40.671875 12.859375 48.328125 
Q 20.21875 56 33.015625 56 
Q 37.15625 56 41.109375 55.140625 
Q 45.0625 54.296875 48.78125 52.59375 
z
" id="DejaVuSans-99"/>
     <path d="M 9.421875 75.984375 
L 18.40625 75.984375 
L 18.40625 0 
L 9.421875 0 
z
" id="DejaVuSans-108"/>
    </defs>
    <g transform="translate(127.951599 79.452798)scale(0.25 -0.25)">
     <use xlink:href="#DejaVuSans-101"/>
     <use x="61.507812" xlink:href="#DejaVuSans-120"/>
     <use x="120.6875" xlink:href="#DejaVuSans-112"/>
     <use x="184.164062" xlink:href="#DejaVuSans-111"/>
     <use x="245.345703" xlink:href="#DejaVuSans-110"/>
     <use x="308.724609" xlink:href="#DejaVuSans-101"/>
     <use x="370.248047" xlink:href="#DejaVuSans-110"/>
     <use x="433.626953" xlink:href="#DejaVuSans-99"/>
     <use x="488.607422" xlink:href="#DejaVuSans-105"/>
     <use x="516.390625" xlink:href="#DejaVuSans-97"/>
     <use x="577.669922" xlink:href="#DejaVuSans-108"/>
    </g>
   </g>
  </g>
 </g>
 <defs>
  <clipPath id="pc2429b5a2f">
   <rect height="266.379033" width="353.502503" x="93.977497" y="16.380967"/>
  </clipPath>
 </defs>
</svg>
